<svg height="128" viewBox="0 0 1024 1024" width="128" xmlns="http://www.w3.org/2000/svg">
  <g fill="#fff">
    <path
      d="m138.613387 442.437562h-13.298702v143.216784h14.321679c32.223776 0 48.07992-24.551449 48.07992-73.142857 0-27.108891-3.58042-45.522478-11.252748-55.24076-6.137862-10.22977-18.925075-14.833167-37.850149-14.833167zm717.106893-4.603396c-25.574426 1.022977-38.873127 25.574426-40.407593 74.677323 1.534466 50.637363 14.833167 76.211788 40.407593 77.234765 27.108891-1.022977 40.407592-26.597403 41.430569-77.234765-1.534466-49.614386-14.833167-74.677323-41.430569-74.677323z" />
    <path
      d="m895.104895 1.022977h-767.232767c-70.585415 0-127.872128 57.286713-127.872128 127.872128v767.232767c0 70.585415 57.286713 127.872128 127.872128 127.872128h767.232767c70.585415 0 127.872128-57.286713 127.872128-127.872128v-767.232767c0-70.585415-57.286713-127.872128-127.872128-127.872128zm-748.307692 647.032967h-88.487513v-268.531468h90.533467c71.096903 1.022977 106.901099 43.988012 107.412587 128.383616 0 93.602398-36.315684 140.147852-109.458541 140.147852zm308.427572 0h-172.371628v-268.531468h168.791209v62.913086h-100.251749v37.85015h84.907093v62.913087h-84.907093v42.453547h103.832168zm265.462538 0h-60.355645v-81.838162l1.022977-42.453546 3.58042-48.07992h-1.022977l-36.827173 172.371628h-47.056943l-38.361638-172.371628 2.045954 39.384615 2.045954 42.453547v90.533466h-61.378622v-268.531468h81.838162l36.827173 167.768231 35.804196-167.768231h81.838162zm135.032967 4.603397c-69.562438-3.068931-105.366633-50.125874-107.412588-141.682318 3.58042-87.464535 39.384615-134.00999 107.412588-138.613387 68.027972 4.091908 103.832168 50.637363 108.435564 140.147853-2.557443 89.51049-38.873127 136.055944-108.435564 140.147852z" />
  </g>
</svg>