<svg height="128" viewBox="0 0 1024 1024" width="128" xmlns="http://www.w3.org/2000/svg"><g fill="#16b998"><path d="m512 936.6c-57.3 0-112.9-11.2-165.3-33.4-50.6-21.4-96-52-134.9-91-39-39-69.6-84.4-91-134.9-22.1-52.4-33.4-108-33.4-165.3s11.2-112.9 33.4-165.3c21.4-50.6 52-96 91-134.9s84.4-69.6 134.9-91c52.4-22.1 108-33.4 165.3-33.4 21.2 0 42.5 1.6 63.4 4.7 8.2 1.2 16.5 2.7 24.6 4.4 22.2 4.7 36.3 26.4 31.7 48.6-4.7 22.2-26.4 36.3-48.6 31.7-6.5-1.4-13.2-2.6-19.8-3.6-16.8-2.5-34.1-3.8-51.2-3.8-91.5 0-177.5 35.6-242.2 100.3-64.8 64.8-100.5 150.8-100.5 242.3s35.6 177.5 100.3 242.2 150.7 100.3 242.2 100.3 177.5-35.6 242.2-100.3 100.3-150.7 100.3-242.2c0-17.1-1.3-34.2-3.8-51-3.3-22.4 12.1-43.3 34.5-46.6s43.3 12.1 46.6 34.5c3.1 20.7 4.7 41.9 4.7 63 0 57.3-11.2 112.9-33.4 165.3-21.4 50.6-52 96-91 134.9-39 39-84.4 69.6-134.9 91-52.2 22.2-107.8 33.5-165.1 33.5z"/><path d="m713.5 239.4a74.5 74.5 0 1 0 149 0 74.5 74.5 0 1 0 -149 0z"/></g></svg>