<?xml version="1.0" standalone="no"?>
<!DOCTYPE svg PUBLIC "-//W3C//DTD SVG 20010904//EN"
 "http://www.w3.org/TR/2001/REC-SVG-20010904/DTD/svg10.dtd">
<svg version="1.0" xmlns="http://www.w3.org/2000/svg"
 width="512.000000pt" height="512.000000pt" viewBox="0 0 512.000000 512.000000"
 preserveAspectRatio="xMidYMid meet">
<metadata>
Created by potrace 1.14, written by Peter Selinger 2001-2017
</metadata>
<g transform="translate(0.000000,512.000000) scale(0.100000,-0.100000)"
fill="#000000" stroke="none">
<path d="M2388 5086 c-96 -17 -165 -40 -248 -82 -71 -35 -1381 -842 -1465
-902 -200 -142 -337 -376 -365 -623 -8 -64 -10 -392 -8 -1019 4 -1017 1 -958
67 -1118 60 -146 179 -293 307 -379 73 -50 1371 -796 1473 -847 93 -47 173
-71 284 -86 142 -18 315 14 452 82 102 52 1542 865 1591 899 115 79 228 223
282 359 60 152 57 98 57 1195 0 938 -1 1015 -18 1075 -50 184 -165 343 -322
447 -125 83 -1553 909 -1627 940 -140 61 -318 84 -460 59z m311 -816 c1097
-97 1821 -1164 1500 -2212 -258 -845 -1123 -1358 -1986 -1178 -927 193 -1526
1104 -1333 2027 128 615 579 1109 1178 1293 223 68 420 89 641 70z"/>
<path d="M2327 4134 c-166 -26 -338 -79 -467 -144 -683 -345 -1027 -1096 -840
-1832 141 -549 590 -998 1140 -1138 364 -93 780 -52 1100 110 683 345 1027
1096 840 1832 -141 549 -590 998 -1140 1138 -193 49 -447 63 -633 34z m466
-425 c306 -62 571 -241 741 -499 131 -198 185 -367 193 -603 10 -257 -44 -467
-169 -664 l-33 -53 -188 188 -188 188 70 -9 c83 -11 124 1 146 44 31 58 11
126 -43 148 -21 8 -210 41 -237 41 -3 0 -5 31 -5 69 l0 68 38 6 c20 3 74 11
120 18 70 10 87 16 112 41 56 56 31 155 -44 174 -22 5 -172 -10 -216 -22 -11
-3 -21 15 -38 68 -12 39 -21 72 -20 73 2 1 37 25 79 53 92 61 119 93 119 139
0 26 -8 43 -34 69 -52 52 -84 47 -197 -27 l-94 -62 -30 18 c-135 81 -208 105
-315 105 -36 0 -92 -7 -123 -15 -62 -16 -171 -68 -183 -86 -4 -7 -75 57 -185
167 l-178 178 33 22 c48 33 181 98 251 123 175 63 426 79 618 40z m404 -2135
c-49 -33 -165 -90 -240 -118 -244 -92 -566 -88 -821 10 -347 133 -615 436
-714 803 -23 87 -26 115 -26 286 -1 166 2 201 22 278 29 117 73 223 130 319
l46 79 818 -818 817 -817 -32 -22z"/>
<path d="M1915 2474 c-49 -8 -103 -19 -118 -25 -57 -24 -76 -116 -33 -162 34
-37 62 -41 180 -25 l105 14 21 -69 c12 -38 20 -70 18 -72 -2 -1 -37 -25 -78
-52 -94 -63 -110 -82 -117 -132 -5 -36 -2 -44 30 -76 53 -53 83 -49 203 29
l98 65 29 -25 c83 -70 212 -109 335 -101 46 3 86 8 90 11 3 4 -135 148 -308
321 -254 254 -320 315 -340 314 -14 -1 -65 -8 -115 -15z"/>
</g>
</svg>
